<svg width="36" height="34" viewBox="0 0 36 34" fill="none" xmlns="http://www.w3.org/2000/svg">
<path d="M33.125 5.625H26.25V4.25C26.25 3.15598 25.8154 2.10677 25.0418 1.33318C24.2682 0.559597 23.219 0.125 22.125 0.125H13.875C12.781 0.125 11.7318 0.559597 10.9582 1.33318C10.1846 2.10677 9.75 3.15598 9.75 4.25V5.625H2.875C2.14565 5.625 1.44618 5.91473 0.930456 6.43046C0.414731 6.94618 0.125 7.64565 0.125 8.375V30.375C0.125 31.1043 0.414731 31.8038 0.930456 32.3195C1.44618 32.8353 2.14565 33.125 2.875 33.125H33.125C33.8543 33.125 34.5538 32.8353 35.0695 32.3195C35.5853 31.8038 35.875 31.1043 35.875 30.375V8.375C35.875 7.64565 35.5853 6.94618 35.0695 6.43046C34.5538 5.91473 33.8543 5.625 33.125 5.625ZM12.5 4.25C12.5 3.88533 12.6449 3.53559 12.9027 3.27773C13.1606 3.01987 13.5103 2.875 13.875 2.875H22.125C22.4897 2.875 22.8394 3.01987 23.0973 3.27773C23.3551 3.53559 23.5 3.88533 23.5 4.25V5.625H12.5V4.25ZM33.125 8.375V15.5267C28.484 18.0529 23.284 19.3759 18 19.375C12.7162 19.376 7.51635 18.0535 2.875 15.5284V8.375H33.125ZM33.125 30.375H2.875V18.6256C7.58425 20.9291 12.7576 22.126 18 22.125C23.2425 22.1251 28.4158 20.9276 33.125 18.6239V30.375ZM13.875 15.25C13.875 14.8853 14.0199 14.5356 14.2777 14.2777C14.5356 14.0199 14.8853 13.875 15.25 13.875H20.75C21.1147 13.875 21.4644 14.0199 21.7223 14.2777C21.9801 14.5356 22.125 14.8853 22.125 15.25C22.125 15.6147 21.9801 15.9644 21.7223 16.2223C21.4644 16.4801 21.1147 16.625 20.75 16.625H15.25C14.8853 16.625 14.5356 16.4801 14.2777 16.2223C14.0199 15.9644 13.875 15.6147 13.875 15.25Z" fill="#206BCC"/>
</svg>
