<svg width="36" height="34" viewBox="0 0 36 34" fill="none" xmlns="http://www.w3.org/2000/svg">
<path d="M33.125 0.875H2.875C2.14565 0.875 1.44618 1.16473 0.930456 1.68046C0.414731 2.19618 0.125 2.89565 0.125 3.625V27C0.125 27.7293 0.414731 28.4288 0.930456 28.9445C1.44618 29.4603 2.14565 29.75 2.875 29.75H5.625V32.5C5.625 32.8647 5.76987 33.2144 6.02773 33.4723C6.28559 33.7301 6.63533 33.875 7 33.875C7.36467 33.875 7.71441 33.7301 7.97227 33.4723C8.23013 33.2144 8.375 32.8647 8.375 32.5V29.75H27.625V32.5C27.625 32.8647 27.7699 33.2144 28.0277 33.4723C28.2856 33.7301 28.6353 33.875 29 33.875C29.3647 33.875 29.7144 33.7301 29.9723 33.4723C30.2301 33.2144 30.375 32.8647 30.375 32.5V29.75H33.125C33.8543 29.75 34.5538 29.4603 35.0695 28.9445C35.5853 28.4288 35.875 27.7293 35.875 27V3.625C35.875 2.89565 35.5853 2.19618 35.0695 1.68046C34.5538 1.16473 33.8543 0.875 33.125 0.875ZM33.125 27H2.875V3.625H33.125V14.625H30.2581C29.9134 12.5853 28.8149 10.7496 27.1805 9.48161C25.5461 8.21362 23.495 7.60591 21.4336 7.7789C19.3722 7.95189 17.4511 8.89296 16.0509 10.4156C14.6506 11.9383 13.8735 13.9314 13.8735 16C13.8735 18.0686 14.6506 20.0617 16.0509 21.5844C17.4511 23.107 19.3722 24.0481 21.4336 24.2211C23.495 24.3941 25.5461 23.7864 27.1805 22.5184C28.8149 21.2504 29.9134 19.4147 30.2581 17.375H33.125V27ZM24.5037 14.625C24.2011 14.1007 23.7338 13.691 23.1746 13.4593C22.6153 13.2277 21.9952 13.187 21.4104 13.3437C20.8257 13.5004 20.309 13.8456 19.9405 14.3259C19.5719 14.8062 19.3722 15.3946 19.3722 16C19.3722 16.6054 19.5719 17.1938 19.9405 17.6741C20.309 18.1544 20.8257 18.4996 21.4104 18.6563C21.9952 18.813 22.6153 18.7723 23.1746 18.5407C23.7338 18.309 24.2011 17.8993 24.5037 17.375H27.4531C27.1185 18.6712 26.3226 19.8008 25.2146 20.5521C24.1067 21.3034 22.7627 21.6248 21.4347 21.4562C20.1068 21.2875 18.8859 20.6403 18.0009 19.6358C17.116 18.6314 16.6278 17.3387 16.6278 16C16.6278 14.6613 17.116 13.3686 18.0009 12.3642C18.8859 11.3597 20.1068 10.7125 21.4347 10.5438C22.7627 10.3752 24.1067 10.6966 25.2146 11.4479C26.3226 12.1992 27.1185 13.3288 27.4531 14.625H24.5037Z" fill="#206BCC"/>
</svg>
